<svg xmlns="http://www.w3.org/2000/svg" width="222.606" height="68.502" viewBox="0 0 222.606 68.502">
  <g id="Nav_Logo" data-name="Nav Logo" transform="translate(-50.894 -66.807)">
    <g id="Group_3" data-name="Group 3" transform="translate(167.806 66.807)">
      <g id="Group_1" data-name="Group 1" transform="translate(15.218)">
        <circle id="Ellipse_1" data-name="Ellipse 1" cx="2.015" cy="2.015" r="2.015" transform="translate(63.943 25.03)" fill="#fff"/>
        <path id="Path_1" data-name="Path 1" d="M158.151,568.183c.756,5.377-1.6,10-5.714,13.991-1.933,1.975-4.243,2.059-6.764,1.639a2,2,0,0,1-1.764-1.68c-.21-1.177.713-1.976,2.1-1.513,2.353.841,3.908-.084,5.42-1.764a13.87,13.87,0,0,0,3.865-9.874,72.279,72.279,0,0,0-1.344-13.109,9.073,9.073,0,0,1-.125-1.47c.125-.925.588-1.765,1.639-1.723a1.479,1.479,0,0,1,1.512,1.512c.462,3.529.839,7.016,1.218,10.546.084.966,0,1.933,0,3.361Z" transform="translate(-143.879 -552.679)" fill="#fff"/>
        <path id="Path_2" data-name="Path 2" d="M158.915,569.89c.041-.589.084-1.681.209-2.731.168-1.093.714-1.933,1.891-1.764a1.644,1.644,0,0,1,1.387,2.184,17.77,17.77,0,0,0-.294,4.706,11.086,11.086,0,0,0,.252,2.058c.462,1.43,1.219,1.681,2.353.673a29.749,29.749,0,0,0,4.874-5.882,15.254,15.254,0,0,1,1.051-1.764,1.283,1.283,0,0,1,1.723-.589,1.354,1.354,0,0,1,.756,1.974c-1.891,3.908-4.327,7.479-8.193,9.706-1.933,1.176-3.949.168-5.084-2.017-.966-1.932-.8-3.992-.882-6.512Z" transform="translate(-141.137 -550.364)" fill="#fff"/>
        <path id="Path_3" data-name="Path 3" d="M177.565,568.079A4.144,4.144,0,0,0,179.1,571.5a10.347,10.347,0,0,1,2.44,2.912c.787,1.614.669,2.794-.747,3.9-2.2,1.653-4.526,3.188-6.769,4.724a2.77,2.77,0,0,1-.945.511c-.865.236-1.732.314-2.125-.669-.355-.827.078-1.417.747-1.888a45.015,45.015,0,0,0,3.935-2.559c1.063-.826,2.8-1.259,3.03-2.6.2-1.455-1.494-2.2-2.439-3.149-2.362-2.125-1.653-8.422.2-10.271a6.472,6.472,0,0,1,5.943-1.023c1.259.629,1.22,1.731,1.142,2.833a2.361,2.361,0,0,1-1.457,2.44c-.984.314-1.535-.276-1.692-1.259-.079-.551.117-1.338-.906-1.259a1.352,1.352,0,0,0-1.377,1.1,27.4,27.4,0,0,0-.551,2.715Z" transform="translate(-138.964 -551.152)" fill="#fff"/>
        <path id="Path_4" data-name="Path 4" d="M193,577.6c.127,0,.252.041.294-.042.673-.714,1.176-1.933,2.563-1.177.8.5.882,1.933.168,3.235A3.061,3.061,0,0,1,193.3,581.5a3.114,3.114,0,0,1-2.942-1.639,8.078,8.078,0,0,1-.923-3.108c-.168-1.344-.253-2.731-.378-4.076a6.8,6.8,0,0,0-.462-2.563c-.546-.882-1.639-.336-2.437-.42-.925-.041-1.6-.42-1.68-1.387-.084-1.091.672-1.47,1.68-1.638,2.269-.462,2.226-.5,2.142-2.858a59.98,59.98,0,0,1-.084-6.134c.127-1.639,1.176-2.394,2.563-2.1s2.059,1.428,1.26,2.563c-1.723,2.562-.462,5.168-.294,7.689.084.714.8.755,1.387.8a13.561,13.561,0,0,1,2.31.21,1.294,1.294,0,0,1,.967,1.6,1.387,1.387,0,0,1-1.135,1.135c-1.05.293-2.647-.715-3.108.756-.337,1.051.041,2.353.084,3.488.125,1.26-.043,2.562.714,3.655Z" transform="translate(-136.477 -552.161)" fill="#fff"/>
      </g>
      <g id="Group_2" data-name="Group 2" transform="translate(0 39.099)">
        <path id="Path_5" data-name="Path 5" d="M140.857,596.069c4.958.714,7.225,2.562,7.982,6.427.925,4.581-.63,8.151-4.579,10.463a17.446,17.446,0,0,1-7.6,2.058,2.043,2.043,0,0,1-2.478-1.891c-.253-1.512-.715-2.942-.294-4.58a12.6,12.6,0,0,0-.462-5.84c-.925-3.823-1.512-7.646-2.312-11.513a7.771,7.771,0,0,1,.043-2.6c.294-2.353,1.009-2.73,2.9-1.386a1.435,1.435,0,0,0,1.6.293,9.951,9.951,0,0,1,3.529-.42c2.142.084,2.689.673,2.9,2.815a15.416,15.416,0,0,1-1.176,6.134Zm5.042,8.864a6.245,6.245,0,0,0,0-.882c-.253-3.235-1.6-4.538-4.832-4.579-.546,0-1.134.041-1.764,0-2.4-.211-2.942-1.092-2.017-3.319.378-.967.841-1.933,1.218-2.983.294-.882.967-1.976.126-2.731s-1.848,0-2.773.252c-1.219.378-1.3,1.219-1.176,2.311.714,5.8,2.9,11.428,2.6,17.436-.043.63.378,1.007,1.092,1.134,3.529.378,7.478-3.11,7.521-6.723Z" transform="translate(-131.008 -585.622)" fill="#fff"/>
        <path id="Path_6" data-name="Path 6" d="M148.226,590.462a20.463,20.463,0,0,1,.293-3.151A1.93,1.93,0,0,1,151,585.84c1.26.42,1.176,1.3.8,2.394-.841,2.479-.168,5.043.084,7.564.252,2.016.757,4.033,1.176,6.05.252,1.3.546,1.932,2.269,1.764,4.118-.378,5.462,1.387,6.764,5.168a1.727,1.727,0,0,1-.841,2.269c-1.05.462-1.638-.21-2.016-1.092-.294-.714-.589-1.471-.967-2.185a2.145,2.145,0,0,0-2.226-1.05c-1.093.125-1.3,1.05-1.428,1.975a17.031,17.031,0,0,0-.043,2.059c0,1.092-.125,2.144-1.386,2.269-1.387.168-1.933-.882-1.891-2.059.125-3.277-.841-6.386-1.428-9.579-.378-1.975-.757-3.865-1.009-5.8-.294-1.639-.378-3.319-.546-5.042Z" transform="translate(-127.868 -585.747)" fill="#fff"/>
        <path id="Path_7" data-name="Path 7" d="M162.782,601.89c-.092-.582-.3-1.656-.41-2.708-.082-1.1.261-2.044,1.445-2.145a1.643,1.643,0,0,1,1.842,1.816,17.755,17.755,0,0,0,.773,4.651,11.047,11.047,0,0,0,.708,1.95c.772,1.288,1.565,1.363,2.444.125a29.765,29.765,0,0,0,3.425-6.828,15.048,15.048,0,0,1,.627-1.956c.277-.668.765-1.168,1.545-.961a1.355,1.355,0,0,1,1.181,1.755c-.962,4.233-2.533,8.26-5.8,11.3-1.619,1.581-3.811,1.052-5.407-.821-1.377-1.666-1.677-3.71-2.326-6.147Z" transform="translate(-125.29 -583.916)" fill="#fff"/>
        <path id="Path_8" data-name="Path 8" d="M184.668,608.325c.125,0,.252.043.293-.041.673-.714,1.176-1.933,2.563-1.176.8.5.882,1.932.168,3.235a3.061,3.061,0,0,1-2.731,1.891,3.112,3.112,0,0,1-2.941-1.639,8.079,8.079,0,0,1-.925-3.108c-.168-1.344-.252-2.731-.378-4.076a6.8,6.8,0,0,0-.461-2.563c-.547-.882-1.639-.336-2.437-.42-.925-.043-1.6-.42-1.681-1.387-.084-1.093.673-1.47,1.681-1.639,2.268-.462,2.226-.5,2.142-2.857a59.65,59.65,0,0,1-.084-6.134c.125-1.639,1.176-2.394,2.562-2.1s2.06,1.428,1.26,2.563c-1.722,2.562-.461,5.168-.293,7.689.084.714.8.755,1.386.8a13.355,13.355,0,0,1,2.312.21,1.294,1.294,0,0,1,.966,1.6,1.382,1.382,0,0,1-1.134,1.134c-1.051.294-2.647-.714-3.11.757-.336,1.05.041,2.353.084,3.487.127,1.26-.043,2.563.714,3.656Z" transform="translate(-122.779 -585.656)" fill="#fff"/>
        <path id="Path_9" data-name="Path 9" d="M203.6,607.225c-.423-.252-.883-.423-1.262-.667a4.609,4.609,0,0,1-1.8-2.984c-.216-1.225,1.091-1.225,1.677-1.721a2.327,2.327,0,0,0,1.055-2.271,2.25,2.25,0,0,0-2.019-1.893c-5.543-1.045-9.834,1.848-11.258,6.174-.378,1.181-.757,2.524.415,3.534,1.1.92,2.4.586,3.659.162,1.3-.378,2.181-1.47,3.4-2.353h.045c.586.883,1.01,1.641,1.47,2.317a5.6,5.6,0,0,0,3.236,2.388c.928.253,1.848.3,2.271-.757A1.532,1.532,0,0,0,203.6,607.225Zm-8.87-3.821c-.288.252-.54.5-1.09.964a2.021,2.021,0,0,1,1.433-2.181l.035-.045A1.3,1.3,0,0,1,194.726,603.4Z" transform="translate(-120.321 -583.609)" fill="#fff"/>
        <path id="Path_10" data-name="Path 10" d="M222.572,604.594a43.149,43.149,0,0,0-2.894-4.074c-2.109-2.561-4.876-2.858-7.562-.884-.8.586-1.56,1.425-2.569,2.353l-.082.171c-.5-1.478-.125-2.7-.3-3.831a1.572,1.572,0,0,0-1.425-1.6c-.928-.035-1.388.631-1.686,1.434a3.078,3.078,0,0,0-.125.838c.125,2.6.252,5.254.55,7.86.126,1.09.55,2.226,1.848,2.388a3.319,3.319,0,0,0,.4.027,1.8,1.8,0,0,0,.325-.045c.838-.207,1.172-1.082,1.46-1.956a11.658,11.658,0,0,1,3.2-4.868c1.425-1.226,2.606-1.136,3.733.333.973,1.135,1.766,2.4,2.6,3.57.55.712,1.226,1.468,2.236.883C223.328,606.487,223.157,605.477,222.572,604.594Z" transform="translate(-117.346 -583.744)" fill="#fff"/>
      </g>
    </g>
    <g id="Group_4" data-name="Group 4" transform="translate(50.894 66.807)">
      <path id="Path_11" data-name="Path 11" d="M174.211,530.294c-3.033-6.781-.571-14.93,6.012-19.891,8.83-6.654,22.545-4.878,30.123,4.162,8.069,9.627,9.479,22.9,1.339,34.319-7.456,10.46-18.1,14.678-30.517,14.642a141.637,141.637,0,0,1-23.44-2.1c7.35-.363,14.7-.87,22.052-1.044,6.742-.159,13.17-1.358,18.845-5.1,9.349-6.16,15.66-14.164,14.053-26.166-1.187-8.873-5.935-15.208-14.445-18.477a17.893,17.893,0,0,0-24.261,16.69c0,1.031.054,2.062.083,3.092Z" transform="translate(-138.181 -495.025)" fill="#fff"/>
      <path id="Path_12" data-name="Path 12" d="M213.241,512.481a44.525,44.525,0,0,1-4-2.7c-7.126-5.979-15.372-7.495-24.328-6.23-8.6,1.215-14.8,5.769-18.638,13.555-.54,1.1-1.088,2.193-1.752,3.531a19.014,19.014,0,0,1,6.225-14.32c11.513-10.891,33.191-8.572,42.135,4.541.3.433.171,1.155.242,1.742Z" transform="translate(-133.925 -499.402)" fill="#fff"/>
      <path id="Path_13" data-name="Path 13" d="M209.987,529.574c-1.522,5.19-6.075,7.2-10.363,8.858a41.2,41.2,0,0,1-13.759,3.087c-13.357.244-26.729-.215-40.094-.4l-.062-1.3c2.012-.148,4.022-.379,6.036-.433,10.707-.286,21.416-.711,32.125-.734,9.832-.021,18.69-2.482,26.265-8.935Z" transform="translate(-145.71 -480.499)" fill="#fff"/>
      <path id="Path_14" data-name="Path 14" d="M183.6,525.959c-1.5,3.084-3.839,2.559-6.21,1.345a6.273,6.273,0,0,1-3.2-6.752c.992-5.4,7.334-8.516,12.573-6.176,7.926,3.539,9.247,14.715,2.287,19.905-2.671,1.991-5.629,3.378-9.525,2.7,2.715-1.757,5.392-3.025,7.482-4.938a8.662,8.662,0,0,0-.355-13.476,6.215,6.215,0,0,0-7.949.057c-1.462,1.267-2.708,2.949-1.6,4.814a8.221,8.221,0,0,0,3.622,2.757c.821.381,2.01-.034,3.033-.093Z" transform="translate(-127.938 -490.514)" fill="#fff"/>
      <path id="Path_15" data-name="Path 15" d="M197.28,551.707c1.272-4.5,2.864-8.933,3.751-13.5,2.271-11.708-1.178-21.553-10.364-29.287-.472-.4-.974-.756-1.439-1.161a3.554,3.554,0,0,1-1.111-1.452,23.068,23.068,0,0,1,15.01,15.5c3.292,10.836,2.1,21.067-5.982,29.759Z" transform="translate(-119.142 -495.08)" fill="#fff"/>
      <path id="Path_16" data-name="Path 16" d="M169.012,524.92q-.544-1.918-1.09-3.834l-.156.13q.539,1.94,1.08,3.876Z" transform="translate(-131.892 -485.817)" fill="#fff"/>
      <path id="Path_17" data-name="Path 17" d="M180.091,521.947l.325-1.729-.486,1.587Z" transform="translate(-124.271 -486.361)" fill="#fff"/>
      <path id="Path_18" data-name="Path 18" d="M168.43,523.615l.706.442c-.1-.042-.237-.058-.294-.135a2.952,2.952,0,0,1-.246-.48Z" transform="translate(-131.476 -484.34)" fill="#fff"/>
      <path id="Path_19" data-name="Path 19" d="M195.186,508.341l.52.516c-.1-.063-.247-.107-.286-.2a1.887,1.887,0,0,1-.073-.486Z" transform="translate(-114.712 -493.908)" fill="#fff"/>
      <path id="Path_20" data-name="Path 20" d="M195.836,508.629l-1.319-1.186-.112.119,1.27,1.236Z" transform="translate(-115.202 -494.365)" fill="#fff"/>
      <path id="Path_21" data-name="Path 21" d="M185.378,529.823l.228-.41-.377.262Z" transform="translate(-120.951 -480.6)" fill="#fff"/>
      <path id="Path_22" data-name="Path 22" d="M193.833,534.128l-.434.856.571-.711Z" transform="translate(-115.832 -477.646)" fill="#fff"/>
    </g>
  </g>
</svg>
